# xmcd
#
# Track frame offsets:
#	151
#	21805
#	34728
#	46920
#	69077
#	87013
#	99204
#	110375
#	122066
#	141935
#	150815
#	162698
#
# Disc length: 2332 seconds
#
# Revision: 1
# Processed by: cddbd v1.5.2PL0 Copyright (c) Steve Scherf et al.
# Submitted via: audiograbber 1.83.01
#
DISCID=89091a0c
DTITLE=Brent Williams - Straight Fiddle Talk
DYEAR=2000
DGENRE=Country
TTITLE0=Maritime Medley
TTITLE1=Joys of Quebec
TTITLE2=Crooked Stovepipe
TTITLE3=Brent's Medley "Original"
TTITLE4=Hilbilly Calypso - Ontario Swing
TTITLE5=My Little Home in West Virginia
TTITLE6=Maple Sugar
TTITLE7=Cincinnati Rag
TTITLE8=Digby Gap Medley
TTITLE9=Snowshoe Reel
TTITLE10=Red Wing
TTITLE11=Johnny Wagner's Breakdown
EXTD=Brent Williams Fan Club\nBrent Williams - Digby Gap Music\nP.O. Box 38\nPo
EXTD=rt Maitland, NS\nB0V 2V0\nCanada
EXTT0=Maritime Medley:\n- Ste. Anne's Reel\n- The Old Man and the Old Woman\n- 
EXTT0=Year of Jubiloo\n- Big John McNeil
EXTT1=
EXTT2=
EXTT3=Brent's Medley "Original":\n- Steven's Breakdown\n- I Remember Don\n- Joa
EXTT3=nne's Hornpipe
EXTT4=
EXTT5=
EXTT6=
EXTT7=
EXTT8=Digby Gap Medley:\n- Rubber Dolly\n- The Growlin' Old Man and the Growlin
EXTT8=' Old Woman\n- Golden Slipper\n- The Girl I Left Behind
EXTT9=
EXTT10=
EXTT11=
PLAYORDER=
